<?xml version="1.0"?>
<svg xmlns="http://www.w3.org/2000/svg" viewBox="0 0 512 512.0005" width="512px" height="512px" class=""><g><path d="m507.605469 118.003906-56.785157-56.785156c-.003906-.007812-.011718-.015625-.015624-.023438-.007813-.003906-.015626-.011718-.023438-.019531l-56.785156-56.78125c-5.855469-5.859375-15.351563-5.859375-21.210938 0-5.855468 5.855469-5.855468 15.355469 0 21.210938l46.195313 46.195312-46.195313 46.199219c-5.855468 5.859375-5.855468 15.355469 0 21.214844 2.929688 2.929687 6.769532 4.394531 10.605469 4.394531 3.839844 0 7.679687-1.46875 10.605469-4.394531l46.199218-46.199219 46.199219 46.199219c2.929688 2.929687 6.765625 4.394531 10.605469 4.394531 3.835938 0 7.679688-1.464844 10.605469-4.394531 5.859375-5.855469 5.859375-15.355469 0-21.210938zm0 0" fill="#7cc8f0" data-original="#7CC8F0"/><path d="m507.605469 118.003906-56.785157-56.785156c-.003906-.007812-.011718-.015625-.015624-.019531l-78.019532 78.015625c2.929688 2.929687 6.769532 4.394531 10.605469 4.394531 3.839844 0 7.679687-1.46875 10.605469-4.394531l46.199218-46.199219 46.195313 46.199219c2.929687 2.929687 6.769531 4.394531 10.609375 4.394531 3.835938 0 7.675781-1.464844 10.605469-4.394531 5.859375-5.855469 5.859375-15.355469 0-21.210938zm0 0" fill="#00abe9" data-original="#00ABE9"/><path d="m15 512c-3.839844 0-7.675781-1.464844-10.605469-4.394531-5.859375-5.855469-5.859375-15.355469 0-21.210938l113.609375-113.609375c5.859375-5.859375 15.359375-5.859375 21.214844 0s5.855469 15.355469 0 21.214844l-113.613281 113.605469c-2.925781 2.929687-6.765625 4.394531-10.605469 4.394531zm0 0" fill="#7cc8f0" data-original="#7CC8F0"/><path d="m100.210938 298.183594c-15.621094 15.621094-15.621094 41.1875 0 56.808594l56.804687 56.800781c15.617187 15.621093 41.183594 15.621093 56.804687 0l169.574219-169.574219-113.609375-113.609375zm0 0" fill="#7fe881" data-original="#7FE881"/><path d="m128.609375 383.390625 28.40625 28.402344c15.617187 15.621093 41.183594 15.621093 56.804687 0l169.574219-169.578125-56.804687-56.804688zm0 0" fill="#1fbf66" data-original="#1FBF66"/><g fill="#00884a"><path d="m332.273438 308.339844c-3.839844 0-7.679688-1.464844-10.609376-4.394532l-34.082031-34.082031c-5.855469-5.859375-5.855469-15.355469 0-21.210937 5.859375-5.859375 15.355469-5.859375 21.214844 0l34.082031 34.082031c5.859375 5.855469 5.859375 15.355469 0 21.210937-2.929687 2.929688-6.769531 4.394532-10.605468 4.394532zm0 0" data-original="#000000"/><path d="m284.40625 356.207031c-3.839844 0-7.679688-1.464843-10.609375-4.394531l-56.800781-56.800781c-5.859375-5.855469-5.859375-15.355469-.003906-21.214844 5.859374-5.855469 15.355468-5.859375 21.214843 0l56.804688 56.800781c5.855469 5.859375 5.859375 15.355469 0 21.214844-2.929688 2.929688-6.769531 4.394531-10.605469 4.394531zm0 0" data-original="#000000"/><path d="m236.539062 404.074219c-3.839843 0-7.675781-1.464844-10.605468-4.394531l-34.082032-34.082032c-5.859374-5.859375-5.859374-15.355468 0-21.214844 5.855469-5.855468 15.355469-5.855468 21.210938 0l34.082031 34.082032c5.859375 5.859375 5.859375 15.355468 0 21.214844-2.929687 2.929687-6.765625 4.394531-10.605469 4.394531zm0 0" data-original="#000000"/></g><path d="m416.664062 388.324219c-45.460937 0-82.441406 36.984375-82.441406 82.445312 0 8.039063 2.320313 15.835938 6.714844 22.550781 7.652344 11.695313 20.554688 18.679688 34.511719 18.679688 10.140625 0 17.964843-2.320312 24.871093-4.363281 5.664063-1.679688 10.558594-3.128907 16.34375-3.128907 5.789063 0 10.683594 1.449219 16.347657 3.128907 6.90625 2.042969 14.734375 4.363281 24.871093 4.363281 13.957032 0 26.859376-6.980469 34.515626-18.679688 4.394531-6.71875 6.714843-14.515624 6.714843-22.550781 0-45.460937-36.988281-82.445312-82.449219-82.445312zm0 0" fill="#ca6d36" data-original="#CA6D36"/><path d="m349.71875 374.542969c-3.949219 0-7.8125-1.601563-10.609375-4.402344-2.789063-2.789063-4.390625-6.648437-4.390625-10.597656s1.601562-7.820313 4.390625-10.609375c2.800781-2.792969 6.660156-4.390625 10.609375-4.390625s7.820312 1.597656 10.609375 4.390625c2.789063 2.789062 4.390625 6.660156 4.390625 10.609375s-1.601562 7.808593-4.390625 10.597656c-2.789063 2.800781-6.660156 4.402344-10.609375 4.402344zm0 0" fill="#ca6d36" data-original="#CA6D36"/><path d="m393.457031 351.332031c-3.949219 0-7.808593-1.597656-10.597656-4.390625-2.800781-2.789062-4.402344-6.660156-4.402344-10.609375s1.601563-7.808593 4.402344-10.609375c2.777344-2.789062 6.648437-4.390625 10.597656-4.390625s7.820313 1.601563 10.609375 4.390625c2.792969 2.800782 4.390625 6.660156 4.390625 10.609375s-1.597656 7.820313-4.390625 10.609375c-2.796875 2.792969-6.65625 4.390625-10.609375 4.390625zm0 0" fill="#ca6d36" data-original="#CA6D36"/><path d="m439.867188 351.332031c-3.9375 0-7.808594-1.597656-10.597657-4.390625-2.792969-2.789062-4.402343-6.660156-4.402343-10.609375s1.609374-7.808593 4.402343-10.609375c2.789063-2.789062 6.648438-4.390625 10.597657-4.390625 3.960937 0 7.820312 1.601563 10.609374 4.390625 2.792969 2.800782 4.402344 6.660156 4.402344 10.609375s-1.609375 7.820313-4.402344 10.609375c-2.789062 2.792969-6.65625 4.390625-10.609374 4.390625zm0 0" fill="#b24d00" data-original="#B24D00" class=""/><path d="m483.609375 374.542969c-3.941406 0-7.8125-1.601563-10.609375-4.402344-2.792969-2.789063-4.390625-6.648437-4.390625-10.597656s1.597656-7.820313 4.390625-10.609375c2.796875-2.792969 6.667969-4.390625 10.609375-4.390625 3.949219 0 7.820313 1.597656 10.609375 4.390625 2.789062 2.800781 4.390625 6.660156 4.390625 10.609375 0 3.941406-1.601563 7.808593-4.390625 10.597656-2.789062 2.800781-6.660156 4.402344-10.609375 4.402344zm0 0" fill="#b24d00" data-original="#B24D00" class=""/><path d="m438.507812 185.414062c0-14.765624-5.71875-28.621093-16.105468-39.007812l-56.804688-56.808594c-10.386718-10.386718-24.242187-16.109375-39.007812-16.109375s-28.621094 5.722657-39.007813 16.109375l-28.402343 28.402344-169.574219 169.578125c-10.390625 10.386719-16.109375 24.242187-16.109375 39.011719 0 14.765625 5.71875 28.621094 16.109375 39.007812l56.800781 56.804688c10.386719 10.386718 24.242188 16.105468 39.007812 16.105468 14.769532 0 28.621094-5.71875 39.007813-16.105468l169.578125-169.578125s0-.003907.003906-.003907l28.394532-28.398437c10.390624-10.386719 16.109374-24.242187 16.109374-39.007813zm-235.296874 215.773438c-4.722657 4.722656-11.042969 7.320312-17.796876 7.320312-6.753906 0-13.074218-2.601562-17.792968-7.320312l-56.804688-56.804688c-9.8125-9.8125-9.8125-25.777343 0-35.59375l158.96875-158.96875 92.394532 92.394532zm0 0" fill="#d7e9fd" data-original="#D7E9FD"/><path d="m394 118.003906-78.019531 78.015625 46.199219 46.199219-158.96875 158.96875c-4.722657 4.722656-11.042969 7.320312-17.796876 7.320312-6.753906 0-13.074218-2.597656-17.796874-7.320312l-28.402344-28.402344-21.210938 21.210938 28.402344 28.40625c10.386719 10.386718 24.242188 16.105468 39.007812 16.105468 14.765626 0 28.621094-5.71875 39.007813-16.105468l169.574219-169.578125c.003906 0 .003906-.003907.003906-.003907l28.398438-28.398437c10.390624-10.386719 16.109374-24.238281 16.109374-39.007813 0-14.765624-5.722656-28.621093-16.109374-39.007812zm0 0" fill="#b4dafe" data-original="#B4DAFE" class="active-path" style="fill:#B4DAFE"/><path d="m416.667969 388.324219v116.183593c5.785156 0 10.679687 1.449219 16.34375 3.128907 6.90625 2.042969 14.730469 4.363281 24.871093 4.363281 13.957032 0 26.859376-6.980469 34.515626-18.679688 4.390624-6.71875 6.714843-14.515624 6.714843-22.550781 0-45.460937-36.984375-82.445312-82.445312-82.445312zm0 0" fill="#b24d00" data-original="#B24D00" class=""/></g> </svg>
