<?xml version="1.0"?>
<svg xmlns="http://www.w3.org/2000/svg" height="512px" viewBox="-32 0 384 384" width="512px" class=""><g><path d="m224 176c10 13.359375 16 30 16 48 0 44.160156-35.839844 80-80 80s-80-35.839844-80-80 35.839844-80 80-80c26.160156 0 49.359375 12.558594 64 32zm0 0" fill="#ff7043" data-original="#FF7043" class=""/><path d="m16 80v-64h208l80 80v272h-288zm224 144c0-18-6-34.640625-16-48-14.640625-19.441406-37.839844-32-64-32-44.160156 0-80 35.839844-80 80s35.839844 80 80 80 80-35.839844 80-80zm0 0" fill="#4dd0e1" data-original="#4DD0E1" class="" style="fill:#4DD0E1"/><g fill="#012e52"><path d="m16 384h288c8.832031 0 16-7.167969 16-16v-272c0-4.238281-1.6875-8.3125-4.6875-11.3125l-80-80c-3-3-7.074219-4.6875-11.3125-4.6875h-208c-8.832031 0-16 7.167969-16 16v352c0 8.832031 7.167969 16 16 16zm201.375-352 70.625 70.632812v249.367188h-256v-256h64c8.832031 0 16-7.167969 16-16s-7.167969-16-16-16h-64v-32zm0 0" data-original="#000000" class="active-path" style="fill:#FFD5AD" data-old_color="#044B1C"/><path d="m64 224c0 52.9375 43.0625 96 96 96s96-43.0625 96-96c0-20.527344-6.433594-40.089844-18.585938-56.703125-.046874-.074219-.101562-.144531-.148437-.226563-.167969-.230468-.3125-.46875-.480469-.695312-18.371094-24.382812-46.351562-38.375-76.785156-38.375-52.9375 0-96 43.0625-96 96zm96-64c15.640625 0 30.28125 5.601562 41.792969 15.585938l-41.792969 41.78125-12.6875-12.679688c-6.242188-6.246094-16.382812-6.246094-22.625 0-6.246094 6.25-6.246094 16.375 0 22.625l24 24c3.121094 3.128906 7.214844 4.6875 11.3125 4.6875s8.183594-1.558594 11.3125-4.6875l48.863281-48.863281c2.464844 6.863281 3.824219 14.09375 3.824219 21.550781 0 35.289062-28.710938 64-64 64s-64-28.710938-64-64 28.710938-64 64-64zm0 0" data-original="#000000" class="active-path" style="fill:#FFD5AD" data-old_color="#044B1C"/></g></g> </svg>
