<?xml version="1.0"?>
<svg xmlns="http://www.w3.org/2000/svg" viewBox="1 1 511.99994 511.99994" width="512px" height="512px" class=""><g><path d="m424.753906 69.246094-.933594-1.21875 88.179688-68.027344-65.53125 90.304688zm0 0" fill="#fdc417" data-original="#FDC417"/><path d="m446.46875 90.304688 65.53125-90.304688-78.109375 78.109375zm0 0" fill="#ff9100" data-original="#FF9100" class=""/><path d="m420.011719 45.675781-31.128907 31.132813 48.382813 49.433594 31.484375-31.488282zm0 0" fill="#93d3f2" data-original="#93D3F2"/><path d="m411.789062 100.210938 25.476563 26.03125 31.484375-31.488282-25.664062-25.839844zm0 0" fill="#66c6ee" data-original="#66C6EE"/><path d="m206.625 427.179688 255.429688-255.25-32.066407-89.917969-88.042969-30.136719-255.394531 255.21875zm0 0" fill="#b8e0f5" data-original="#B8E0F5"/><path d="m145.726562 366.273438 60.898438 60.90625 255.429688-255.25-32.066407-89.917969zm0 0" fill="#93d3f2" data-original="#93D3F2"/><path d="m333.871094 300.023438 128.183594-128.09375-32.066407-89.917969-88.042969-30.136719-127.671874 127.585938zm0 0" fill="#ff193d" data-original="#FF193D" class=""/><path d="m283.714844 249.464844-21.101563-21.273438-200.40625 200.425782-41.019531-41.019532-21.1875 21.1875 103.214844 103.214844 21.1875-21.1875-41.007813-41.007812zm0 0" fill="#00c7ce" data-original="#00C7CE" class=""/><path d="m273.179688 238.820312-221.574219 221.574219 51.609375 51.605469 21.1875-21.1875-41.007813-41.007812 200.320313-200.339844zm0 0" fill="#0fafb7" data-original="#0FAFB7"/><path d="m63.546875 305.285156 21.1875-21.1875 143.164063 143.164063-21.1875 21.1875zm0 0" fill="#93d3f2" data-original="#93D3F2"/><path d="m135.128906 376.867188 21.1875-21.1875 71.582032 71.582031-21.1875 21.1875zm0 0" fill="#66c6ee" data-original="#66C6EE"/><g fill="#00c7ce"><path d="m323.253906 310.59375-24.316406-24.199219 21.1875-21.1875 24.316406 24.199219zm0 0" data-original="#000000" class=""/><path d="m280.363281 353.621094-24.371093-24.289063 21.1875-21.1875 24.375 24.289063zm0 0" data-original="#000000" class=""/><path d="m214.175781 371.316406 21.175781-21.203125 24.234376 24.203125-21.175782 21.203125zm0 0" data-original="#000000" class=""/></g><path d="m334.027344 299.867188-24.339844-24.222657 10.4375-10.4375 24.316406 24.199219zm0 0" fill="#dc0812" data-original="#DC0812" class=""/><path d="m323.253906 310.59375-24.316406-24.199219 21.1875-21.1875 24.316406 24.199219zm0 0" fill="#00c7ce" data-original="#00C7CE" class=""/><path d="m280.363281 353.621094-24.371093-24.289063 21.1875-21.1875 24.375 24.289063zm0 0" fill="#00c7ce" data-original="#00C7CE" class=""/><path d="m214.175781 371.316406 21.175781-21.203125 24.234376 24.203125-21.175782 21.203125zm0 0" fill="#00c7ce" data-original="#00C7CE" class=""/><path d="m273.167969 238.832031 60.703125 61.191407 128.183594-128.09375-32.066407-89.917969zm0 0" fill="#dc0812" data-original="#DC0812" class=""/><path d="m334.027344 299.867188-24.339844-24.222657 10.4375-10.4375 24.316406 24.199219zm0 0" fill="#bf1011" data-original="#BF1011" class="active-path" style="fill:#BF1011"/><path d="m365.421875 268.566406-24.277344-24.386718 21.1875-21.1875 24.277344 24.386718zm0 0" fill="#dc0812" data-original="#DC0812" class=""/><path d="m383.746094 202 21.183594-21.191406 24.132812 24.125-21.1875 21.191406zm0 0" fill="#dc0812" data-original="#DC0812" class=""/><path d="m365.421875 268.566406-24.277344-24.386718 21.1875-21.1875 24.277344 24.386718zm0 0" fill="#bf1011" data-original="#BF1011" class="active-path" style="fill:#BF1011"/><path d="m383.746094 202 21.183594-21.191406 24.132812 24.125-21.1875 21.191406zm0 0" fill="#bf1011" data-original="#BF1011" class="active-path" style="fill:#BF1011"/></g> </svg>
